<svg width="101" height="35" viewBox="0 0 101 35" fill="none" xmlns="http://www.w3.org/2000/svg">
<path d="M26.5474 24.0791C26.5474 25.4209 26.6934 26.5088 26.949 27.3066C27.2411 28.1044 27.6063 28.9747 28.1174 29.9176C28.3 30.2077 28.373 30.4978 28.373 30.7517C28.373 31.1143 28.1539 31.4769 27.6793 31.8396L25.3789 33.3627C25.0503 33.5802 24.7217 33.689 24.4296 33.689C24.0645 33.689 23.6993 33.5077 23.3342 33.1813C22.823 32.6374 22.3849 32.0572 22.0197 31.4769C21.6546 30.8605 21.2895 30.1715 20.8878 29.3374C18.0398 32.6736 14.4615 34.3418 10.153 34.3418C7.08585 34.3418 4.63947 33.4715 2.85033 31.7308C1.06118 29.9901 0.148354 27.6693 0.148354 24.7682C0.148354 21.6857 1.24375 19.1835 3.47105 17.2978C5.69835 15.4121 8.65592 14.4693 12.4168 14.4693C13.6582 14.4693 14.9362 14.578 16.2872 14.7594C17.6382 14.9407 19.0257 15.2308 20.4862 15.5572V12.9099C20.4862 10.1539 19.902 8.23189 18.7701 7.10772C17.6016 5.98354 15.6299 5.43958 12.8184 5.43958C11.5405 5.43958 10.226 5.58464 8.875 5.91101C7.52401 6.23739 6.20954 6.63629 4.93158 7.14398C4.34737 7.39783 3.90921 7.54288 3.65362 7.61541C3.39803 7.68794 3.21546 7.7242 3.06941 7.7242C2.55822 7.7242 2.30263 7.36156 2.30263 6.60002V4.8231C2.30263 4.24288 2.37566 3.80772 2.55822 3.55387C2.74079 3.30002 3.06941 3.04618 3.58059 2.79233C4.85855 2.13959 6.3921 1.59563 8.18125 1.16046C9.97039 0.689036 11.8691 0.471453 13.8773 0.471453C18.2224 0.471453 21.399 1.45057 23.4438 3.40882C25.452 5.36706 26.4743 8.34068 26.4743 12.3297V24.0791H26.5474ZM11.723 29.5912C12.928 29.5912 14.1694 29.3737 15.4839 28.9385C16.7984 28.5033 17.9668 27.7055 18.9526 26.6176C19.5368 25.9286 19.975 25.1671 20.1941 24.2967C20.4132 23.4264 20.5592 22.3747 20.5592 21.1418V19.6187C19.5003 19.3649 18.3684 19.1473 17.2 19.0022C16.0316 18.8572 14.8997 18.7846 13.7678 18.7846C11.3214 18.7846 9.53224 19.2561 8.3273 20.2352C7.12237 21.2143 6.53816 22.5923 6.53816 24.4055C6.53816 26.1099 6.97631 27.3791 7.88914 28.2495C8.76546 29.1561 10.0434 29.5912 11.723 29.5912ZM41.0431 33.5077C40.3859 33.5077 39.9477 33.3989 39.6556 33.1451C39.3635 32.9275 39.1079 32.4198 38.8888 31.7308L30.3082 3.69893C30.0891 2.97365 29.9796 2.50222 29.9796 2.24838C29.9796 1.66816 30.2717 1.34178 30.8559 1.34178H34.4342C35.128 1.34178 35.6026 1.45057 35.8582 1.70442C36.1503 1.922 36.3694 2.4297 36.5885 3.11871L42.7227 27.1253L48.4188 3.11871C48.6013 2.39343 48.8204 1.922 49.1125 1.70442C49.4046 1.48684 49.9158 1.34178 50.573 1.34178H53.4941C54.1878 1.34178 54.6625 1.45057 54.9546 1.70442C55.2467 1.922 55.5023 2.4297 55.6484 3.11871L61.4174 27.4154L67.7342 3.11871C67.9533 2.39343 68.2089 1.922 68.4645 1.70442C68.7566 1.48684 69.2313 1.34178 69.8885 1.34178H73.2842C73.8684 1.34178 74.197 1.63189 74.197 2.24838C74.197 2.42969 74.1605 2.61101 74.124 2.8286C74.0875 3.04618 74.0145 3.33629 73.8684 3.73519L65.0687 31.7671C64.8497 32.4923 64.5941 32.9638 64.302 33.1813C64.0099 33.3989 63.5352 33.544 62.9145 33.544H59.7743C59.0806 33.544 58.6059 33.4352 58.3138 33.1813C58.0217 32.9275 57.7661 32.4561 57.6201 31.7308L51.9605 8.34068L46.3375 31.6945C46.1549 32.4198 45.9359 32.8912 45.6438 33.1451C45.3516 33.3989 44.8405 33.5077 44.1832 33.5077H41.0431ZM87.9625 34.4868C86.0638 34.4868 84.1651 34.2693 82.3395 33.8341C80.5138 33.3989 79.0898 32.9275 78.1405 32.3835C77.5563 32.0572 77.1546 31.6945 77.0086 31.3682C76.8625 31.0418 76.7895 30.6791 76.7895 30.3528V28.5033C76.7895 27.7418 77.0816 27.3791 77.6293 27.3791C77.8484 27.3791 78.0674 27.4154 78.2865 27.4879C78.5056 27.5605 78.8342 27.7055 79.1993 27.8506C80.4408 28.3945 81.7918 28.8297 83.2158 29.1198C84.6763 29.4099 86.1003 29.555 87.5609 29.555C89.8612 29.555 91.6503 29.1561 92.8918 28.3583C94.1332 27.5605 94.7905 26.4 94.7905 24.9132C94.7905 23.8978 94.4619 23.0638 93.8046 22.3748C93.1474 21.6857 91.9059 21.0693 90.1168 20.489L84.8224 18.8572C82.1569 18.0231 80.1852 16.7901 78.9803 15.1583C77.7753 13.5627 77.1546 11.7857 77.1546 9.90002C77.1546 8.37695 77.4832 7.03519 78.1405 5.87475C78.7977 4.71431 79.674 3.69893 80.7694 2.90112C81.8648 2.06706 83.1063 1.45057 84.5668 1.01541C86.0273 0.580244 87.5609 0.398926 89.1674 0.398926C89.9707 0.398926 90.8105 0.43519 91.6138 0.543981C92.4536 0.652772 93.2204 0.797827 93.9872 0.942882C94.7174 1.1242 95.4112 1.30552 96.0684 1.5231C96.7257 1.74068 97.2368 1.95827 97.602 2.17585C98.1132 2.46596 98.4783 2.75607 98.6974 3.08244C98.9165 3.37255 99.026 3.77145 99.026 4.27915V5.98354C99.026 6.74508 98.7339 7.14398 98.1862 7.14398C97.8941 7.14398 97.4194 6.99893 96.7987 6.70882C94.7174 5.76596 92.3806 5.29453 89.7882 5.29453C87.7069 5.29453 86.0638 5.6209 84.9319 6.30991C83.8 6.99893 83.2158 8.05057 83.2158 9.53739C83.2158 10.5528 83.5809 11.4231 84.3112 12.1121C85.0415 12.8011 86.3924 13.4901 88.3276 14.1066L93.5125 15.7385C96.1414 16.5726 98.0401 17.733 99.172 19.2198C100.304 20.7066 100.852 22.411 100.852 24.2967C100.852 25.8561 100.523 27.2704 99.9023 28.5033C99.2451 29.7363 98.3688 30.8242 97.2368 31.6945C96.1049 32.6011 94.754 33.2539 93.1839 33.7253C91.5408 34.233 89.8247 34.4868 87.9625 34.4868Z" fill="#242424"/>
</svg>
