<svg width="338" height="137" viewBox="0 0 338 137" fill="none" xmlns="http://www.w3.org/2000/svg">
<g clip-path="url(#clip0_2_331)">
<rect width="338" height="137" rx="16" fill="#3B3B3B"/>
<path d="M36.368 60.778C35.54 61.606 34.298 62.056 33.2 62.056C30.086 62.056 28.88 59.878 28.862 57.79C28.844 55.684 30.158 53.416 33.2 53.416C34.298 53.416 35.414 53.794 36.242 54.604L37.826 53.074C36.53 51.796 34.91 51.148 33.2 51.148C28.646 51.148 26.504 54.496 26.522 57.79C26.54 61.066 28.52 64.288 33.2 64.288C35.018 64.288 36.692 63.694 37.988 62.416L36.368 60.778ZM39.0168 55.126V59.788C39.0168 62.542 40.5648 64.144 42.6888 64.144C43.9308 64.144 44.7768 63.712 45.6948 62.812L45.8388 64.018H47.8008V55.126H45.6228V59.662C45.6228 61.012 44.7048 62.146 43.3548 62.146C41.9508 62.146 41.2128 61.12 41.2128 59.77V55.126H39.0168ZM50.0982 55.126V64H52.2942V59.32C52.2942 57.682 53.3562 57.07 54.5082 57.07C55.2282 57.07 55.6422 57.268 56.0922 57.646L57.0822 55.738C56.5962 55.252 55.7142 54.892 54.7962 54.892C53.8962 54.892 52.9782 55.054 52.2942 56.152L52.1322 55.126H50.0982ZM65.2289 56.35C64.7249 55.468 63.5909 54.91 62.4029 54.91C59.8109 54.892 57.7769 56.494 57.7769 59.554C57.7769 62.668 59.7209 64.288 62.3489 64.27C63.3389 64.252 64.7249 63.748 65.2289 62.704L65.3369 64H67.4069V55.126H65.3009L65.2289 56.35ZM62.6009 56.872C66.0569 56.872 66.0569 62.254 62.6009 62.254C61.1429 62.254 59.9729 61.246 59.9729 59.554C59.9729 57.862 61.1429 56.872 62.6009 56.872ZM70.1401 52.858V55.144H68.4841V57.034H70.1401V60.868C70.1401 63.082 71.4001 64.18 73.3261 64.108C73.9921 64.09 74.5141 63.982 75.1441 63.73L74.5321 61.858C74.2081 62.02 73.8121 62.128 73.4701 62.128C72.7861 62.128 72.3181 61.714 72.3181 60.868V57.034H74.7841V55.144H72.3361V52.624L70.1401 52.858ZM85.5915 60.346C85.9335 56.692 84.0795 54.856 81.1095 54.856C78.2295 54.856 76.3935 56.8 76.3935 59.5C76.3935 62.344 78.2115 64.234 81.2715 64.234C82.6215 64.234 84.1515 63.766 85.0875 62.794L83.6835 61.408C83.1795 61.93 82.1175 62.236 81.3075 62.236C79.7595 62.236 78.8055 61.444 78.6615 60.346H85.5915ZM78.6975 58.528C79.0215 57.376 79.9935 56.8 81.1815 56.8C82.4415 56.8 83.3415 57.376 83.4855 58.528H78.6975ZM91.9457 56.962C93.3317 56.962 94.5197 58.006 94.5197 59.554C94.5197 61.156 93.3317 62.164 91.9457 62.164C90.5417 62.164 89.4257 61.102 89.4257 59.554C89.4257 57.952 90.5417 56.962 91.9457 56.962ZM94.6637 51.418V56.332C94.1417 55.414 92.6837 54.91 91.7477 54.91C89.1557 54.91 87.2297 56.494 87.2297 59.554C87.2297 62.47 89.1917 64.198 91.8017 64.198C92.8817 64.198 93.9797 63.838 94.6637 62.776L94.8077 64H96.8597V51.418H94.6637ZM105.559 58.546H109.195C110.167 58.546 111.553 59.14 111.553 60.274C111.553 61.462 110.167 61.786 109.195 61.786H105.559V58.546ZM105.559 53.56H109.195C110.707 53.56 111.175 54.532 111.175 55.108C111.175 55.828 110.689 56.458 109.195 56.458H105.559V53.56ZM109.195 51.4C107.197 51.4 105.199 51.4 103.219 51.4V64C105.217 64 107.197 64 109.195 64C111.805 64 113.911 63.1 113.911 60.292C113.911 59.5 113.371 57.934 111.895 57.484C113.065 56.962 113.533 56.026 113.533 55.054C113.533 52.516 111.679 51.4 109.195 51.4ZM115.83 55.126V59.788C115.83 62.542 117.378 64.144 119.502 64.144C120.744 64.144 121.59 63.712 122.508 62.812L122.652 64.018H124.614V55.126H122.436V59.662C122.436 61.012 121.518 62.146 120.168 62.146C118.764 62.146 118.026 61.12 118.026 59.77V55.126H115.83ZM135.642 64V59.338C135.642 56.548 133.968 54.982 131.88 54.982C130.764 54.982 129.864 55.432 128.964 56.314L128.82 55.108H126.858V64H129.036V59.464C129.036 58.114 129.954 56.98 131.304 56.98C132.708 56.98 133.446 58.006 133.446 59.356V64H135.642ZM142.191 56.962C143.577 56.962 144.765 58.006 144.765 59.554C144.765 61.156 143.577 62.164 142.191 62.164C140.787 62.164 139.671 61.102 139.671 59.554C139.671 57.952 140.787 56.962 142.191 56.962ZM144.909 51.418V56.332C144.387 55.414 142.929 54.91 141.993 54.91C139.401 54.91 137.475 56.494 137.475 59.554C137.475 62.47 139.437 64.198 142.047 64.198C143.127 64.198 144.225 63.838 144.909 62.776L145.053 64H147.105V51.418H144.909ZM149.376 51.418V64H151.554V51.418H149.376ZM162.634 60.346C162.976 56.692 161.122 54.856 158.152 54.856C155.272 54.856 153.436 56.8 153.436 59.5C153.436 62.344 155.254 64.234 158.314 64.234C159.664 64.234 161.194 63.766 162.13 62.794L160.726 61.408C160.222 61.93 159.16 62.236 158.35 62.236C156.802 62.236 155.848 61.444 155.704 60.346H162.634ZM155.74 58.528C156.064 57.376 157.036 56.8 158.224 56.8C159.484 56.8 160.384 57.376 160.528 58.528H155.74ZM171.706 56.044C170.68 55.144 169.636 54.874 168.25 54.874C166.63 54.874 164.506 55.594 164.506 57.646C164.506 59.662 166.504 60.274 168.178 60.4C169.438 60.472 169.942 60.724 169.942 61.336C169.942 61.984 169.168 62.416 168.34 62.398C167.35 62.38 165.91 61.858 165.28 61.156L164.2 62.722C165.496 64.072 166.9 64.306 168.304 64.306C170.842 64.306 172.12 62.956 172.12 61.39C172.12 59.032 169.996 58.654 168.322 58.546C167.188 58.474 166.666 58.15 166.666 57.574C166.666 57.016 167.242 56.692 168.286 56.692C169.132 56.692 169.852 56.89 170.482 57.484L171.706 56.044ZM33.686 78.35C33.182 77.468 32.048 76.91 30.86 76.91C28.268 76.892 26.234 78.494 26.234 81.554C26.234 84.668 28.178 86.288 30.806 86.27C31.796 86.252 33.182 85.748 33.686 84.704L33.794 86H35.864V77.126H33.758L33.686 78.35ZM31.058 78.872C34.514 78.872 34.514 84.254 31.058 84.254C29.6 84.254 28.43 83.246 28.43 81.554C28.43 79.862 29.6 78.872 31.058 78.872ZM46.8139 86V81.338C46.8139 78.548 45.1399 76.982 43.0519 76.982C41.9359 76.982 41.0359 77.432 40.1359 78.314L39.9919 77.108H38.0299V86H40.2079V81.464C40.2079 80.114 41.1259 78.98 42.4759 78.98C43.8799 78.98 44.6179 80.006 44.6179 81.356V86H46.8139ZM53.3631 78.962C54.7491 78.962 55.9371 80.006 55.9371 81.554C55.9371 83.156 54.7491 84.164 53.3631 84.164C51.9591 84.164 50.8431 83.102 50.8431 81.554C50.8431 79.952 51.9591 78.962 53.3631 78.962ZM56.0811 73.418V78.332C55.5591 77.414 54.1011 76.91 53.1651 76.91C50.5731 76.91 48.6471 78.494 48.6471 81.554C48.6471 84.47 50.6091 86.198 53.2191 86.198C54.2991 86.198 55.3971 85.838 56.0811 84.776L56.2251 86H58.2771V73.418H56.0811ZM74.8247 73.4H71.8727L67.0847 78.728V73.4H64.7087V86H67.0847V80.42L72.3587 86H75.2927V85.856L69.2267 79.502L74.8247 73.472V73.4ZM78.8976 77.09V86H76.7016V77.09H78.8976ZM76.5036 74.624C76.5036 76.334 79.0956 76.334 79.0956 74.624C79.0956 72.914 76.5036 72.914 76.5036 74.624ZM82.1452 74.858V77.144H80.4892V79.034H82.1452V82.868C82.1452 85.082 83.4052 86.18 85.3312 86.108C85.9972 86.09 86.5192 85.982 87.1492 85.73L86.5372 83.858C86.2132 84.02 85.8172 84.128 85.4752 84.128C84.7912 84.128 84.3232 83.714 84.3232 82.868V79.034H86.7892V77.144H84.3412V74.624L82.1452 74.858ZM95.8147 78.044C94.7887 77.144 93.7447 76.874 92.3587 76.874C90.7387 76.874 88.6147 77.594 88.6147 79.646C88.6147 81.662 90.6127 82.274 92.2867 82.4C93.5467 82.472 94.0507 82.724 94.0507 83.336C94.0507 83.984 93.2767 84.416 92.4487 84.398C91.4587 84.38 90.0187 83.858 89.3887 83.156L88.3087 84.722C89.6047 86.072 91.0087 86.306 92.4127 86.306C94.9507 86.306 96.2287 84.956 96.2287 83.39C96.2287 81.032 94.1047 80.654 92.4307 80.546C91.2967 80.474 90.7747 80.15 90.7747 79.574C90.7747 79.016 91.3507 78.692 92.3947 78.692C93.2407 78.692 93.9607 78.89 94.5907 79.484L95.8147 78.044ZM104.911 86V79.178H107.521V77.252H104.911V76.658C104.911 75.578 105.487 75.074 106.243 75.074C106.693 75.074 107.125 75.236 107.593 75.542L108.403 73.904C107.683 73.436 106.873 73.184 106.099 73.184C104.317 73.184 102.715 74.282 102.715 76.658V77.252H101.059V79.178H102.715V86H104.911ZM113.053 76.946C110.227 76.946 108.463 79.034 108.463 81.572C108.463 84.128 110.191 86.198 113.071 86.198C115.951 86.198 117.697 84.128 117.697 81.572C117.697 79.034 115.879 76.946 113.053 76.946ZM113.071 78.944C114.547 78.944 115.483 80.24 115.483 81.572C115.483 82.922 114.673 84.182 113.071 84.182C111.469 84.182 110.659 82.922 110.659 81.572C110.659 80.24 111.487 78.944 113.071 78.944ZM119.573 77.126V86H121.769V81.32C121.769 79.682 122.831 79.07 123.983 79.07C124.703 79.07 125.117 79.268 125.567 79.646L126.557 77.738C126.071 77.252 125.189 76.892 124.271 76.892C123.371 76.892 122.453 77.054 121.769 78.152L121.607 77.126H119.573ZM138.252 77.126L136.632 81.014L135.714 83.462L134.868 80.96L133.518 77.126H130.962L134.508 85.856L132.852 89.708H135.264L140.682 77.126H138.252ZM146.362 76.946C143.536 76.946 141.772 79.034 141.772 81.572C141.772 84.128 143.5 86.198 146.38 86.198C149.26 86.198 151.006 84.128 151.006 81.572C151.006 79.034 149.188 76.946 146.362 76.946ZM146.38 78.944C147.856 78.944 148.792 80.24 148.792 81.572C148.792 82.922 147.982 84.182 146.38 84.182C144.778 84.182 143.968 82.922 143.968 81.572C143.968 80.24 144.796 78.944 146.38 78.944ZM152.936 77.126V81.788C152.936 84.542 154.484 86.144 156.608 86.144C157.85 86.144 158.696 85.712 159.614 84.812L159.758 86.018H161.72V77.126H159.542V81.662C159.542 83.012 158.624 84.146 157.274 84.146C155.87 84.146 155.132 83.12 155.132 81.77V77.126H152.936Z" fill="white"/>
<path d="M240.364 106.627L240.263 106.627C237.077 106.573 234.501 103.964 234.5 100.767C234.5 100.767 234.5 100.767 234.5 100.767L234.5 42.179C234.5 38.9489 237.13 36.3187 240.362 36.3187L298.95 36.3187C302.182 36.3187 304.812 38.9473 304.812 42.179L304.812 53.6461L304.812 54.1461L305.312 54.1461L318.561 54.1461C321.793 54.1461 324.423 56.7747 324.423 60.0064L324.423 69.6909L324.423 70.1909L324.923 70.1909L336.388 70.1909C339.62 70.1909 342.25 72.8195 342.25 76.0512L342.25 134.64C342.25 137.87 339.62 140.5 336.388 140.5L277.802 140.499C274.57 140.499 271.94 137.871 271.94 134.639L271.94 124.954L271.94 124.454L271.44 124.454L259.975 124.454C256.743 124.454 254.113 121.826 254.113 118.594L254.113 107.127L254.113 106.627L253.613 106.627L240.364 106.627ZM324.423 118.594L324.423 118.647L324.423 118.648C324.395 121.855 321.776 124.457 318.561 124.457L276.786 124.457L276.286 124.457L276.286 124.957L276.286 134.641C276.286 135.476 276.964 136.154 277.8 136.154L336.388 136.154C337.223 136.154 337.902 135.476 337.902 134.641L337.902 76.0507C337.902 75.216 337.223 74.5384 336.388 74.5384L324.923 74.5384L324.423 74.5384L324.423 75.0384L324.423 118.594ZM305.311 58.4934L304.811 58.4934L304.811 58.9934L304.811 100.542L304.81 100.543L304.81 100.768C304.81 103.998 302.181 106.628 298.949 106.628L258.958 106.628L258.458 106.628L258.458 107.128L258.458 118.595C258.458 119.43 259.137 120.108 259.972 120.108L318.561 120.108C319.396 120.108 320.075 119.43 320.075 118.595L320.075 60.0048C320.075 59.1702 319.396 58.4926 318.561 58.4926L305.311 58.4934ZM240.364 40.6639C239.528 40.6639 238.85 41.3415 238.85 42.1762L238.85 100.767C238.85 101.601 239.528 102.279 240.364 102.279L298.952 102.279C299.787 102.279 300.466 101.601 300.466 100.767L300.466 42.1762C300.466 41.3415 299.787 40.6639 298.952 40.6639L240.364 40.6639Z" fill="#545659" stroke="#3B3B3B"/>
</g>
<defs>
<clipPath id="clip0_2_331">
<rect width="338" height="137" rx="16" fill="white"/>
</clipPath>
</defs>
</svg>
