<svg width="24" height="25" viewBox="0 0 24 25" fill="none" xmlns="http://www.w3.org/2000/svg">
<rect y="0.5" width="24" height="24" rx="12" fill="white"/>
<path d="M18.3482 15.6435V18.1185C18.3483 18.2958 18.2811 18.4664 18.1603 18.596C18.0395 18.7257 17.874 18.8047 17.6972 18.8171C17.3914 18.8381 17.1415 18.8493 16.9483 18.8493C10.7627 18.8493 5.7489 13.8355 5.7489 7.64992C5.7489 7.45673 5.7594 7.20685 5.7811 6.90096C5.7935 6.72418 5.8725 6.55869 6.00215 6.43788C6.1318 6.31706 6.30245 6.24992 6.47966 6.25H8.95472C9.04155 6.24991 9.1253 6.2821 9.18972 6.34031C9.25414 6.39852 9.29462 6.4786 9.3033 6.56498C9.3194 6.72597 9.3341 6.85407 9.3481 6.95136C9.48721 7.92215 9.77228 8.86634 10.1937 9.7519C10.2602 9.8919 10.2168 10.0592 10.0908 10.1488L8.58024 11.2281C9.50381 13.3801 11.2188 15.0951 13.3708 16.0187L14.4487 14.5109C14.4928 14.4493 14.5571 14.4052 14.6304 14.3861C14.7037 14.367 14.7813 14.3743 14.8498 14.4066C15.7353 14.8272 16.6792 15.1116 17.6496 15.2501C17.7469 15.2641 17.875 15.2795 18.0346 15.2949C18.1209 15.3037 18.2008 15.3443 18.2589 15.4087C18.3169 15.4731 18.349 15.5568 18.3489 15.6435H18.3482Z" fill="#00ACED"/>
</svg>
