<svg width="1140" height="380" viewBox="0 0 1140 380" fill="none" xmlns="http://www.w3.org/2000/svg">
<g filter="url(#filter0_b_2_542)">
<g clip-path="url(#clip0_2_542)">
<rect width="1140" height="380" rx="25" fill="#3B3B3B"/>
<rect x="960.5" y="228.5" width="420" height="363" rx="181.5" stroke="url(#paint0_linear_2_542)" stroke-width="5"/>
<rect x="889.5" y="166.5" width="624" height="540" rx="27.5" stroke="url(#paint1_linear_2_542)" stroke-width="5"/>
<rect x="833.5" y="108.5" width="557" height="482" rx="27.5" stroke="url(#paint2_linear_2_542)" stroke-width="5"/>
<circle cx="871.5" cy="181.5" r="103.5" fill="#5865F2"/>
<g clip-path="url(#clip1_2_542)">
<path d="M907.117 148.782C900.566 145.776 893.542 143.562 886.197 142.294C886.063 142.269 885.93 142.33 885.861 142.453C884.957 144.059 883.957 146.156 883.256 147.803C875.356 146.621 867.497 146.621 859.76 147.803C859.059 146.119 858.022 144.059 857.114 142.453C857.045 142.334 856.912 142.273 856.778 142.294C849.437 143.558 842.413 145.772 835.858 148.782C835.802 148.807 835.753 148.847 835.721 148.9C822.397 168.806 818.747 188.223 820.537 207.399C820.545 207.492 820.598 207.582 820.671 207.639C829.462 214.095 837.977 218.014 846.334 220.612C846.468 220.653 846.61 220.604 846.695 220.494C848.672 217.794 850.434 214.948 851.945 211.954C852.034 211.779 851.949 211.571 851.767 211.501C848.972 210.441 846.31 209.148 843.75 207.68C843.547 207.562 843.531 207.272 843.717 207.133C844.256 206.73 844.795 206.31 845.309 205.886C845.403 205.808 845.532 205.792 845.642 205.841C862.462 213.52 880.671 213.52 897.293 205.841C897.402 205.788 897.532 205.804 897.629 205.882C898.144 206.306 898.682 206.73 899.225 207.133C899.412 207.272 899.399 207.562 899.197 207.68C896.637 209.177 893.975 210.441 891.176 211.497C890.994 211.567 890.912 211.779 891.002 211.954C892.545 214.943 894.307 217.79 896.248 220.49C896.329 220.604 896.475 220.653 896.608 220.612C905.006 218.014 913.521 214.095 922.312 207.639C922.389 207.582 922.438 207.497 922.446 207.403C924.589 185.233 918.857 165.976 907.25 148.904C907.222 148.847 907.174 148.807 907.117 148.782ZM854.457 195.723C849.393 195.723 845.22 191.073 845.22 185.364C845.22 179.654 849.312 175.005 854.457 175.005C859.642 175.005 863.774 179.695 863.693 185.364C863.693 191.073 859.602 195.723 854.457 195.723ZM888.607 195.723C883.544 195.723 879.371 191.073 879.371 185.364C879.371 179.654 883.462 175.005 888.607 175.005C893.793 175.005 897.925 179.695 897.844 185.364C897.844 191.073 893.793 195.723 888.607 195.723Z" fill="white"/>
</g>
<path d="M106.6 132.304H113.064C114.792 132.304 117.256 133.36 117.256 135.376C117.256 137.488 114.792 138.064 113.064 138.064H106.6V132.304ZM106.6 123.44H113.064C115.752 123.44 116.584 125.168 116.584 126.192C116.584 127.472 115.72 128.592 113.064 128.592H106.6V123.44ZM113.064 119.6C109.512 119.6 105.96 119.6 102.44 119.6V142C105.992 142 109.512 142 113.064 142C117.704 142 121.448 140.4 121.448 135.408C121.448 134 120.488 131.216 117.864 130.416C119.944 129.488 120.776 127.824 120.776 126.096C120.776 121.584 117.48 119.6 113.064 119.6ZM139.772 135.504C140.38 129.008 137.084 125.744 131.804 125.744C126.684 125.744 123.42 129.2 123.42 134C123.42 139.056 126.652 142.416 132.092 142.416C134.492 142.416 137.212 141.584 138.876 139.856L136.38 137.392C135.484 138.32 133.596 138.864 132.156 138.864C129.404 138.864 127.708 137.456 127.452 135.504H139.772ZM127.516 132.272C128.092 130.224 129.82 129.2 131.932 129.2C134.172 129.2 135.772 130.224 136.028 132.272H127.516ZM161.633 128.4C160.737 126.832 158.721 125.84 156.609 125.84C152.001 125.808 148.385 128.656 148.385 134.096C148.385 139.632 151.841 142.512 156.513 142.48C158.273 142.448 160.737 141.552 161.633 139.696L161.825 142H165.505V126.224H161.761L161.633 128.4ZM156.961 129.328C163.105 129.328 163.105 138.896 156.961 138.896C154.369 138.896 152.289 137.104 152.289 134.096C152.289 131.088 154.369 129.328 156.961 129.328ZM184.016 138.608C181.36 138.608 179.536 136.592 179.536 134.128C179.536 131.664 181.2 129.648 184.016 129.648C186.832 129.648 188.496 131.664 188.496 134.128C188.496 136.592 186.672 138.608 184.016 138.608ZM179.184 148.592V140.144C180.304 141.872 182.768 142.384 184.432 142.384C189.488 142.384 192.4 138.736 192.4 134.128C192.4 129.488 189.168 125.872 184.304 125.872C182.512 125.872 180.4 126.64 179.184 128.4L178.928 126.224H175.28V148.592H179.184ZM207.664 128.4C206.768 126.832 204.752 125.84 202.64 125.84C198.032 125.808 194.416 128.656 194.416 134.096C194.416 139.632 197.872 142.512 202.544 142.48C204.304 142.448 206.768 141.552 207.664 139.696L207.856 142H211.536V126.224H207.792L207.664 128.4ZM202.992 129.328C209.136 129.328 209.136 138.896 202.992 138.896C200.4 138.896 198.32 137.104 198.32 134.096C198.32 131.088 200.4 129.328 202.992 129.328ZM214.843 126.224V142H218.747V133.68C218.747 130.768 220.635 129.68 222.683 129.68C223.963 129.68 224.699 130.032 225.499 130.704L227.259 127.312C226.395 126.448 224.827 125.808 223.195 125.808C221.595 125.808 219.963 126.096 218.747 128.048L218.459 126.224H214.843ZM231.318 122.192V126.256H228.373V129.616H231.318V136.432C231.318 140.368 233.558 142.32 236.982 142.192C238.166 142.16 239.094 141.968 240.214 141.52L239.126 138.192C238.55 138.48 237.845 138.672 237.238 138.672C236.022 138.672 235.19 137.936 235.19 136.432V129.616H239.574V126.256H235.222V121.776L231.318 122.192ZM256.392 125.904C251.368 125.904 248.232 129.616 248.232 134.128C248.232 138.672 251.304 142.352 256.424 142.352C261.544 142.352 264.648 138.672 264.648 134.128C264.648 129.616 261.416 125.904 256.392 125.904ZM256.424 129.456C259.048 129.456 260.712 131.76 260.712 134.128C260.712 136.528 259.272 138.768 256.424 138.768C253.576 138.768 252.136 136.528 252.136 134.128C252.136 131.76 253.608 129.456 256.424 129.456ZM272.527 142V129.872H277.167V126.448H272.527V125.392C272.527 123.472 273.551 122.576 274.895 122.576C275.695 122.576 276.463 122.864 277.295 123.408L278.735 120.496C277.455 119.664 276.015 119.216 274.639 119.216C271.471 119.216 268.623 121.168 268.623 125.392V126.448H265.678V129.872H268.623V142H272.527ZM299.102 128.4C298.206 126.832 296.19 125.84 294.078 125.84C289.47 125.808 285.854 128.656 285.854 134.096C285.854 139.632 289.31 142.512 293.982 142.48C295.742 142.448 298.206 141.552 299.102 139.696L299.294 142H302.974V126.224H299.23L299.102 128.4ZM294.43 129.328C300.574 129.328 300.574 138.896 294.43 138.896C291.838 138.896 289.758 137.104 289.758 134.096C289.758 131.088 291.838 129.328 294.43 129.328ZM321.8 142V133.712C321.8 128.752 318.824 125.968 315.112 125.968C313.128 125.968 311.528 126.768 309.928 128.336L309.672 126.192H306.184V142H310.056V133.936C310.056 131.536 311.688 129.52 314.088 129.52C316.584 129.52 317.896 131.344 317.896 133.744V142H321.8ZM347.272 135.504C347.88 129.008 344.584 125.744 339.304 125.744C334.184 125.744 330.92 129.2 330.92 134C330.92 139.056 334.152 142.416 339.592 142.416C341.992 142.416 344.712 141.584 346.376 139.856L343.88 137.392C342.984 138.32 341.096 138.864 339.656 138.864C336.904 138.864 335.208 137.456 334.952 135.504H347.272ZM335.016 132.272C335.592 130.224 337.32 129.2 339.432 129.2C341.672 129.2 343.272 130.224 343.528 132.272H335.016ZM356.911 131.568L353.808 126.224H349.136V126.352L354.32 134L348.816 141.904V142H353.488L356.911 136.72L360.336 142H365.008V141.904L359.504 134L364.688 126.352V126.224H360.016L356.911 131.568ZM368.599 122.192V126.256H365.655V129.616H368.599V136.432C368.599 140.368 370.839 142.32 374.263 142.192C375.447 142.16 376.375 141.968 377.495 141.52L376.407 138.192C375.831 138.48 375.127 138.672 374.519 138.672C373.303 138.672 372.471 137.936 372.471 136.432V129.616H376.855V126.256H372.503V121.776L368.599 122.192ZM395.428 135.504C396.036 129.008 392.74 125.744 387.46 125.744C382.34 125.744 379.076 129.2 379.076 134C379.076 139.056 382.308 142.416 387.748 142.416C390.148 142.416 392.868 141.584 394.532 139.856L392.036 137.392C391.14 138.32 389.252 138.864 387.812 138.864C385.06 138.864 383.364 137.456 383.108 135.504H395.428ZM383.172 132.272C383.748 130.224 385.476 129.2 387.588 129.2C389.828 129.2 391.428 130.224 391.684 132.272H383.172ZM413.956 142V133.712C413.956 128.752 410.98 125.968 407.268 125.968C405.284 125.968 403.684 126.768 402.084 128.336L401.828 126.192H398.34V142H402.212V133.936C402.212 131.536 403.844 129.52 406.244 129.52C408.74 129.52 410.052 131.344 410.052 133.744V142H413.956ZM429.791 127.856C427.967 126.256 426.111 125.776 423.647 125.776C420.767 125.776 416.991 127.056 416.991 130.704C416.991 134.288 420.543 135.376 423.519 135.6C425.759 135.728 426.655 136.176 426.655 137.264C426.655 138.416 425.279 139.184 423.807 139.152C422.047 139.12 419.487 138.192 418.367 136.944L416.447 139.728C418.751 142.128 421.247 142.544 423.743 142.544C428.255 142.544 430.527 140.144 430.527 137.36C430.527 133.168 426.751 132.496 423.775 132.304C421.759 132.176 420.831 131.6 420.831 130.576C420.831 129.584 421.855 129.008 423.711 129.008C425.215 129.008 426.495 129.36 427.615 130.416L429.791 127.856ZM436.934 126.16V142H433.03V126.16H436.934ZM432.678 121.776C432.678 124.816 437.286 124.816 437.286 121.776C437.286 118.736 432.678 118.736 432.678 121.776ZM452.564 126.192L450.388 131.472L447.988 138.064L445.556 131.408L443.38 126.192H439.123L445.876 142.064H450.1L456.819 126.192H452.564ZM474.366 135.504C474.974 129.008 471.678 125.744 466.398 125.744C461.278 125.744 458.014 129.2 458.014 134C458.014 139.056 461.246 142.416 466.686 142.416C469.086 142.416 471.806 141.584 473.47 139.856L470.974 137.392C470.078 138.32 468.19 138.864 466.75 138.864C463.998 138.864 462.302 137.456 462.046 135.504H474.366ZM462.11 132.272C462.686 130.224 464.414 129.2 466.526 129.2C468.766 129.2 470.366 130.224 470.622 132.272H462.11ZM102.28 159.632V182H106.152V159.632H102.28ZM125.209 175.504C125.817 169.008 122.521 165.744 117.241 165.744C112.121 165.744 108.857 169.2 108.857 174C108.857 179.056 112.089 182.416 117.529 182.416C119.929 182.416 122.649 181.584 124.313 179.856L121.817 177.392C120.921 178.32 119.033 178.864 117.593 178.864C114.841 178.864 113.145 177.456 112.889 175.504H125.209ZM112.953 172.272C113.529 170.224 115.257 169.2 117.369 169.2C119.609 169.2 121.209 170.224 121.465 172.272H112.953ZM140.602 168.4C139.706 166.832 137.69 165.84 135.578 165.84C130.97 165.808 127.354 168.656 127.354 174.096C127.354 179.632 130.81 182.512 135.482 182.48C137.242 182.448 139.706 181.552 140.602 179.696L140.794 182H144.474V166.224H140.73L140.602 168.4ZM135.93 169.328C142.074 169.328 142.074 178.896 135.93 178.896C133.338 178.896 131.258 177.104 131.258 174.096C131.258 171.088 133.338 169.328 135.93 169.328ZM147.78 166.224V182H151.684V173.68C151.684 170.768 153.572 169.68 155.62 169.68C156.9 169.68 157.636 170.032 158.436 170.704L160.196 167.312C159.332 166.448 157.764 165.808 156.132 165.808C154.532 165.808 152.9 166.096 151.684 168.048L151.396 166.224H147.78ZM177.175 182V173.712C177.175 168.752 174.199 165.968 170.487 165.968C168.503 165.968 166.903 166.768 165.303 168.336L165.047 166.192H161.559V182H165.431V173.936C165.431 171.536 167.063 169.52 169.463 169.52C171.959 169.52 173.271 171.344 173.271 173.744V182H177.175ZM184.434 166.16V182H180.53V166.16H184.434ZM180.178 161.776C180.178 164.816 184.786 164.816 184.786 161.776C184.786 158.736 180.178 158.736 180.178 161.776ZM203.488 182V173.712C203.488 168.752 200.512 165.968 196.8 165.968C194.816 165.968 193.216 166.768 191.616 168.336L191.36 166.192H187.872V182H191.744V173.936C191.744 171.536 193.376 169.52 195.776 169.52C198.272 169.52 199.584 171.344 199.584 173.744V182H203.488ZM217.659 166.608C216.571 165.872 215.291 165.712 214.043 165.712C209.627 165.712 206.043 168.784 206.043 173.712C206.043 178.64 209.115 181.648 214.043 181.648C215.995 181.648 218.043 182.64 218.043 184.816C218.043 186.992 216.283 188.208 214.043 188.208C211.803 188.208 209.915 186.864 209.915 184.816H206.043C206.043 189.072 209.467 191.856 214.043 191.856C218.619 191.856 221.947 189.168 221.947 184.816C221.947 182.8 221.307 180.912 218.683 179.6C221.275 178.416 222.01 175.664 222.01 173.712C222.01 171.984 221.562 170.416 220.347 169.04L222.107 166.8L219.227 164.624L217.659 166.608ZM214.043 169.264C216.283 169.264 218.139 170.992 218.139 173.712C218.139 176.432 216.283 178.096 214.043 178.096C211.771 178.096 209.915 176.464 209.915 173.712C209.915 170.96 211.771 169.264 214.043 169.264ZM241.88 177.424C240.92 178.384 239.672 178.736 238.424 178.736C235.992 178.736 233.944 177.136 233.944 174.128C233.944 171.376 235.864 169.456 238.488 169.456C239.576 169.456 240.728 169.872 241.656 170.704L244.12 168.112C242.392 166.416 240.664 165.776 238.424 165.776C233.848 165.776 230.04 168.528 230.04 174.128C230.04 179.728 233.848 182.48 238.424 182.48C240.76 182.48 242.68 181.776 244.504 179.984L241.88 177.424ZM253.954 165.904C248.93 165.904 245.794 169.616 245.794 174.128C245.794 178.672 248.866 182.352 253.986 182.352C259.106 182.352 262.21 178.672 262.21 174.128C262.21 169.616 258.978 165.904 253.954 165.904ZM253.986 169.456C256.61 169.456 258.274 171.76 258.274 174.128C258.274 176.528 256.834 178.768 253.986 178.768C251.138 178.768 249.698 176.528 249.698 174.128C249.698 171.76 251.17 169.456 253.986 169.456ZM279.305 182V173.552C279.305 171.472 280.617 169.648 282.729 169.648C284.841 169.648 285.705 171.408 285.705 173.488V182H289.609V173.488C289.609 168.752 287.401 166 282.921 166C280.873 166 279.049 166.64 277.641 168.88C276.745 166.704 274.857 165.936 272.969 165.936C271.465 165.936 269.641 166.512 268.809 168.112L268.521 166.192H264.905V182H268.809V173.552C268.809 171.472 270.057 169.584 272.169 169.584C274.313 169.584 275.401 171.472 275.401 173.552V182H279.305ZM307.993 182V173.552C307.993 171.472 309.305 169.648 311.417 169.648C313.529 169.648 314.393 171.408 314.393 173.488V182H318.297V173.488C318.297 168.752 316.089 166 311.609 166C309.561 166 307.737 166.64 306.329 168.88C305.433 166.704 303.545 165.936 301.657 165.936C300.153 165.936 298.329 166.512 297.497 168.112L297.209 166.192H293.593V182H297.497V173.552C297.497 171.472 298.745 169.584 300.857 169.584C303.001 169.584 304.089 171.472 304.089 173.552V182H307.993ZM321.689 166.224V174.512C321.689 179.408 324.441 182.256 328.217 182.256C330.425 182.256 331.929 181.488 333.561 179.888L333.817 182.032H337.305V166.224H333.433V174.288C333.433 176.688 331.801 178.704 329.401 178.704C326.905 178.704 325.593 176.88 325.593 174.48V166.224H321.689ZM356.269 182V173.712C356.269 168.752 353.293 165.968 349.581 165.968C347.597 165.968 345.997 166.768 344.397 168.336L344.141 166.192H340.653V182H344.525V173.936C344.525 171.536 346.157 169.52 348.557 169.52C351.053 169.52 352.365 171.344 352.365 173.744V182H356.269ZM363.528 166.16V182H359.624V166.16H363.528ZM359.272 161.776C359.272 164.816 363.88 164.816 363.88 161.776C363.88 158.736 359.272 158.736 359.272 161.776ZM368.661 162.192V166.256H365.717V169.616H368.661V176.432C368.661 180.368 370.901 182.32 374.325 182.192C375.509 182.16 376.437 181.968 377.557 181.52L376.469 178.192C375.893 178.48 375.189 178.672 374.581 178.672C373.365 178.672 372.533 177.936 372.533 176.432V169.616H376.917V166.256H372.565V161.776L368.661 162.192ZM391.77 166.224L388.89 173.136L387.258 177.488L385.754 173.04L383.354 166.224H378.81L385.114 181.744L382.17 188.592H386.458L396.09 166.224H391.77Z" fill="white"/>
<rect x="101" y="234" width="167" height="48" rx="24" fill="#5865F2"/>
<path d="M147.676 250.8C145.836 250.8 144.012 250.8 142.188 250.8V252.768H145.564V257.216C145.564 258.912 144.668 260.24 142.748 260.24C140.844 260.24 139.916 259.264 139.916 257.344H137.836C137.836 260.512 139.884 262.224 142.748 262.224C145.836 262.224 147.676 260.112 147.676 257.216V250.8ZM153.071 253.952C150.559 253.952 148.991 255.808 148.991 258.064C148.991 260.336 150.527 262.176 153.087 262.176C155.647 262.176 157.199 260.336 157.199 258.064C157.199 255.808 155.583 253.952 153.071 253.952ZM153.087 255.728C154.399 255.728 155.231 256.88 155.231 258.064C155.231 259.264 154.511 260.384 153.087 260.384C151.663 260.384 150.943 259.264 150.943 258.064C150.943 256.88 151.679 255.728 153.087 255.728ZM160.498 254.08V262H158.546V254.08H160.498ZM158.37 251.888C158.37 253.408 160.674 253.408 160.674 251.888C160.674 250.368 158.37 250.368 158.37 251.888ZM170.025 262V257.856C170.025 255.376 168.537 253.984 166.681 253.984C165.689 253.984 164.889 254.384 164.089 255.168L163.961 254.096H162.217V262H164.153V257.968C164.153 256.768 164.969 255.76 166.169 255.76C167.417 255.76 168.073 256.672 168.073 257.872V262H170.025ZM179.337 250.8C177.961 250.8 176.313 250.8 174.937 250.8V262C176.313 262 177.961 262 179.337 262C183.257 262 184.985 259.136 184.937 256.304C184.889 253.536 183.177 250.8 179.337 250.8ZM177.033 252.8H179.337C181.769 252.8 182.793 254.544 182.841 256.288C182.889 258.112 181.881 259.968 179.337 259.968H177.033V252.8ZM188.139 254.08V262H186.187V254.08H188.139ZM186.011 251.888C186.011 253.408 188.315 253.408 188.315 251.888C188.315 250.368 186.011 250.368 186.011 251.888ZM196.146 254.928C195.234 254.128 194.306 253.888 193.074 253.888C191.634 253.888 189.746 254.528 189.746 256.352C189.746 258.144 191.522 258.688 193.01 258.8C194.13 258.864 194.578 259.088 194.578 259.632C194.578 260.208 193.89 260.592 193.154 260.576C192.274 260.56 190.994 260.096 190.434 259.472L189.474 260.864C190.626 262.064 191.874 262.272 193.122 262.272C195.378 262.272 196.514 261.072 196.514 259.68C196.514 257.584 194.626 257.248 193.138 257.152C192.13 257.088 191.666 256.8 191.666 256.288C191.666 255.792 192.178 255.504 193.106 255.504C193.858 255.504 194.498 255.68 195.058 256.208L196.146 254.928ZM203.221 259.712C202.741 260.192 202.117 260.368 201.493 260.368C200.277 260.368 199.253 259.568 199.253 258.064C199.253 256.688 200.213 255.728 201.525 255.728C202.069 255.728 202.645 255.936 203.109 256.352L204.341 255.056C203.477 254.208 202.613 253.888 201.493 253.888C199.205 253.888 197.301 255.264 197.301 258.064C197.301 260.864 199.205 262.24 201.493 262.24C202.661 262.24 203.621 261.888 204.533 260.992L203.221 259.712ZM209.258 253.952C206.746 253.952 205.178 255.808 205.178 258.064C205.178 260.336 206.714 262.176 209.274 262.176C211.834 262.176 213.386 260.336 213.386 258.064C213.386 255.808 211.77 253.952 209.258 253.952ZM209.274 255.728C210.586 255.728 211.418 256.88 211.418 258.064C211.418 259.264 210.698 260.384 209.274 260.384C207.85 260.384 207.13 259.264 207.13 258.064C207.13 256.88 207.866 255.728 209.274 255.728ZM214.734 254.112V262H216.686V257.84C216.686 256.384 217.63 255.84 218.654 255.84C219.294 255.84 219.662 256.016 220.062 256.352L220.942 254.656C220.51 254.224 219.726 253.904 218.91 253.904C218.11 253.904 217.294 254.048 216.686 255.024L216.542 254.112H214.734ZM225.495 255.744C226.727 255.744 227.783 256.672 227.783 258.048C227.783 259.472 226.727 260.368 225.495 260.368C224.247 260.368 223.255 259.424 223.255 258.048C223.255 256.624 224.247 255.744 225.495 255.744ZM227.911 250.816V255.184C227.447 254.368 226.151 253.92 225.319 253.92C223.015 253.92 221.303 255.328 221.303 258.048C221.303 260.64 223.047 262.176 225.367 262.176C226.327 262.176 227.303 261.856 227.911 260.912L228.039 262H229.863V250.816H227.911Z" fill="white"/>
</g>
</g>
<defs>
<filter id="filter0_b_2_542" x="-245" y="-245" width="1630" height="870" filterUnits="userSpaceOnUse" color-interpolation-filters="sRGB">
<feFlood flood-opacity="0" result="BackgroundImageFix"/>
<feGaussianBlur in="BackgroundImage" stdDeviation="122.5"/>
<feComposite in2="SourceAlpha" operator="in" result="effect1_backgroundBlur_2_542"/>
<feBlend mode="normal" in="SourceGraphic" in2="effect1_backgroundBlur_2_542" result="shape"/>
</filter>
<linearGradient id="paint0_linear_2_542" x1="1092" y1="238" x2="997" y2="390.5" gradientUnits="userSpaceOnUse">
<stop offset="0.102083" stop-color="#EC5C94"/>
<stop offset="0.701019" stop-color="#EC8161"/>
</linearGradient>
<linearGradient id="paint1_linear_2_542" x1="1031" y1="164" x2="872.5" y2="349" gradientUnits="userSpaceOnUse">
<stop stop-color="#F39B39"/>
<stop offset="0.89018" stop-color="#EC8161"/>
<stop offset="0.914583" stop-color="#EC8161"/>
</linearGradient>
<linearGradient id="paint2_linear_2_542" x1="831" y1="130" x2="1098.5" y2="396.5" gradientUnits="userSpaceOnUse">
<stop stop-color="#FFCE31"/>
<stop offset="0.40625" stop-color="#EC8161"/>
</linearGradient>
<clipPath id="clip0_2_542">
<rect width="1140" height="380" rx="25" fill="white"/>
</clipPath>
<clipPath id="clip1_2_542">
<rect width="102.776" height="79.6154" fill="white" transform="translate(820.112 141.692)"/>
</clipPath>
</defs>
</svg>
