<svg width="338" height="137" viewBox="0 0 338 137" fill="none" xmlns="http://www.w3.org/2000/svg">
<g clip-path="url(#clip0_2_337)">
<rect width="338" height="137" rx="16" fill="#3B3B3B"/>
<path d="M36.368 60.778C35.54 61.606 34.298 62.056 33.2 62.056C30.086 62.056 28.88 59.878 28.862 57.79C28.844 55.684 30.158 53.416 33.2 53.416C34.298 53.416 35.414 53.794 36.242 54.604L37.826 53.074C36.53 51.796 34.91 51.148 33.2 51.148C28.646 51.148 26.504 54.496 26.522 57.79C26.54 61.066 28.52 64.288 33.2 64.288C35.018 64.288 36.692 63.694 37.988 62.416L36.368 60.778ZM43.5255 54.946C40.6995 54.946 38.9355 57.034 38.9355 59.572C38.9355 62.128 40.6635 64.198 43.5435 64.198C46.4235 64.198 48.1695 62.128 48.1695 59.572C48.1695 57.034 46.3515 54.946 43.5255 54.946ZM43.5435 56.944C45.0195 56.944 45.9555 58.24 45.9555 59.572C45.9555 60.922 45.1455 62.182 43.5435 62.182C41.9415 62.182 41.1315 60.922 41.1315 59.572C41.1315 58.24 41.9595 56.944 43.5435 56.944ZM50.0995 55.126V59.788C50.0995 62.542 51.6475 64.144 53.7715 64.144C55.0135 64.144 55.8595 63.712 56.7775 62.812L56.9215 64.018H58.8835V55.126H56.7055V59.662C56.7055 61.012 55.7875 62.146 54.4375 62.146C53.0335 62.146 52.2955 61.12 52.2955 59.77V55.126H50.0995ZM61.1809 55.126V64H63.3769V59.32C63.3769 57.682 64.4389 57.07 65.5909 57.07C66.3109 57.07 66.7249 57.268 67.1749 57.646L68.1649 55.738C67.6789 55.252 66.7969 54.892 65.8789 54.892C64.9789 54.892 64.0609 55.054 63.3769 56.152L63.2149 55.126H61.1809ZM76.3655 56.044C75.3395 55.144 74.2955 54.874 72.9095 54.874C71.2895 54.874 69.1655 55.594 69.1655 57.646C69.1655 59.662 71.1635 60.274 72.8375 60.4C74.0975 60.472 74.6015 60.724 74.6015 61.336C74.6015 61.984 73.8275 62.416 72.9995 62.398C72.0095 62.38 70.5695 61.858 69.9395 61.156L68.8595 62.722C70.1555 64.072 71.5595 64.306 72.9635 64.306C75.5015 64.306 76.7795 62.956 76.7795 61.39C76.7795 59.032 74.6555 58.654 72.9815 58.546C71.8475 58.474 71.3255 58.15 71.3255 57.574C71.3255 57.016 71.9015 56.692 72.9455 56.692C73.7915 56.692 74.5115 56.89 75.1415 57.484L76.3655 56.044ZM87.3493 60.346C87.6913 56.692 85.8373 54.856 82.8673 54.856C79.9873 54.856 78.1513 56.8 78.1513 59.5C78.1513 62.344 79.9693 64.234 83.0293 64.234C84.3793 64.234 85.9093 63.766 86.8453 62.794L85.4413 61.408C84.9373 61.93 83.8753 62.236 83.0653 62.236C81.5173 62.236 80.5633 61.444 80.4193 60.346H87.3493ZM80.4553 58.528C80.7793 57.376 81.7513 56.8 82.9393 56.8C84.1993 56.8 85.0993 57.376 85.2433 58.528H80.4553ZM103.048 60.778C102.22 61.606 100.978 62.056 99.8802 62.056C96.7662 62.056 95.5602 59.878 95.5422 57.79C95.5242 55.684 96.8382 53.416 99.8802 53.416C100.978 53.416 102.094 53.794 102.922 54.604L104.506 53.074C103.21 51.796 101.59 51.148 99.8802 51.148C95.3262 51.148 93.1842 54.496 93.2022 57.79C93.2202 61.066 95.2002 64.288 99.8802 64.288C101.698 64.288 103.372 63.694 104.668 62.416L103.048 60.778ZM110.206 54.946C107.38 54.946 105.616 57.034 105.616 59.572C105.616 62.128 107.344 64.198 110.224 64.198C113.104 64.198 114.85 62.128 114.85 59.572C114.85 57.034 113.032 54.946 110.206 54.946ZM110.224 56.944C111.7 56.944 112.636 58.24 112.636 59.572C112.636 60.922 111.826 62.182 110.224 62.182C108.622 62.182 107.812 60.922 107.812 59.572C107.812 58.24 108.64 56.944 110.224 56.944ZM124.826 64V59.248C124.826 58.078 125.564 57.052 126.752 57.052C127.94 57.052 128.426 58.042 128.426 59.212V64H130.622V59.212C130.622 56.548 129.38 55 126.86 55C125.708 55 124.682 55.36 123.89 56.62C123.386 55.396 122.324 54.964 121.262 54.964C120.416 54.964 119.39 55.288 118.922 56.188L118.76 55.108H116.726V64H118.922V59.248C118.922 58.078 119.624 57.016 120.812 57.016C122.018 57.016 122.63 58.078 122.63 59.248V64H124.826ZM137.961 62.092C136.467 62.092 135.441 60.958 135.441 59.572C135.441 58.186 136.377 57.052 137.961 57.052C139.545 57.052 140.481 58.186 140.481 59.572C140.481 60.958 139.455 62.092 137.961 62.092ZM135.243 67.708V62.956C135.873 63.928 137.259 64.216 138.195 64.216C141.039 64.216 142.677 62.164 142.677 59.572C142.677 56.962 140.859 54.928 138.123 54.928C137.115 54.928 135.927 55.36 135.243 56.35L135.099 55.126H133.047V67.708H135.243ZM151.623 56.35C151.119 55.468 149.985 54.91 148.797 54.91C146.205 54.892 144.171 56.494 144.171 59.554C144.171 62.668 146.115 64.288 148.743 64.27C149.733 64.252 151.119 63.748 151.623 62.704L151.731 64H153.801V55.126H151.695L151.623 56.35ZM148.995 56.872C152.451 56.872 152.451 62.254 148.995 62.254C147.537 62.254 146.367 61.246 146.367 59.554C146.367 57.862 147.537 56.872 148.995 56.872ZM156.02 55.126V64H158.216V59.32C158.216 57.682 159.278 57.07 160.43 57.07C161.15 57.07 161.564 57.268 162.014 57.646L163.004 55.738C162.518 55.252 161.636 54.892 160.718 54.892C159.818 54.892 158.9 55.054 158.216 56.152L158.054 55.126H156.02ZM171.151 56.35C170.647 55.468 169.513 54.91 168.325 54.91C165.733 54.892 163.699 56.494 163.699 59.554C163.699 62.668 165.643 64.288 168.271 64.27C169.261 64.252 170.647 63.748 171.151 62.704L171.259 64H173.329V55.126H171.223L171.151 56.35ZM168.523 56.872C171.979 56.872 171.979 62.254 168.523 62.254C167.065 62.254 165.895 61.246 165.895 59.554C165.895 57.862 167.065 56.872 168.523 56.872ZM176.062 52.858V55.144H174.406V57.034H176.062V60.868C176.062 63.082 177.322 64.18 179.248 64.108C179.914 64.09 180.436 63.982 181.066 63.73L180.454 61.858C180.13 62.02 179.734 62.128 179.392 62.128C178.708 62.128 178.24 61.714 178.24 60.868V57.034H180.706V55.144H178.258V52.624L176.062 52.858ZM184.908 55.09V64H182.712V55.09H184.908ZM182.514 52.624C182.514 54.334 185.106 54.334 185.106 52.624C185.106 50.914 182.514 50.914 182.514 52.624ZM194.059 55.108L192.835 58.078L191.485 61.786L190.117 58.042L188.893 55.108H186.499L190.297 64.036H192.673L196.453 55.108H194.059ZM206.683 60.346C207.025 56.692 205.171 54.856 202.201 54.856C199.321 54.856 197.485 56.8 197.485 59.5C197.485 62.344 199.303 64.234 202.363 64.234C203.713 64.234 205.243 63.766 206.179 62.794L204.775 61.408C204.271 61.93 203.209 62.236 202.399 62.236C200.851 62.236 199.897 61.444 199.753 60.346H206.683ZM199.789 58.528C200.113 57.376 201.085 56.8 202.273 56.8C203.533 56.8 204.433 57.376 204.577 58.528H199.789ZM36.89 86H39.482L33.83 73.4H31.238L25.586 86H28.16L29.24 83.624H35.828L36.89 86ZM34.874 81.41H30.194L32.534 76.046L34.874 81.41ZM49.2924 86V81.338C49.2924 78.548 47.6184 76.982 45.5304 76.982C44.4144 76.982 43.5144 77.432 42.6144 78.314L42.4704 77.108H40.5084V86H42.6864V81.464C42.6864 80.114 43.6044 78.98 44.9544 78.98C46.3584 78.98 47.0964 80.006 47.0964 81.356V86H49.2924ZM58.5056 78.35C58.0016 77.468 56.8676 76.91 55.6796 76.91C53.0876 76.892 51.0536 78.494 51.0536 81.554C51.0536 84.668 52.9976 86.288 55.6256 86.27C56.6156 86.252 58.0016 85.748 58.5056 84.704L58.6136 86H60.6836V77.126H58.5776L58.5056 78.35ZM55.8776 78.872C59.3336 78.872 59.3336 84.254 55.8776 84.254C54.4196 84.254 53.2496 83.246 53.2496 81.554C53.2496 79.862 54.4196 78.872 55.8776 78.872ZM62.9035 73.418V86H65.0815V73.418H62.9035ZM74.051 77.126L72.431 81.014L71.513 83.462L70.667 80.96L69.317 77.126H66.761L70.307 85.856L68.651 89.708H71.063L76.481 77.126H74.051ZM85.0048 78.044C83.9788 77.144 82.9348 76.874 81.5488 76.874C79.9288 76.874 77.8048 77.594 77.8048 79.646C77.8048 81.662 79.8028 82.274 81.4768 82.4C82.7368 82.472 83.2408 82.724 83.2408 83.336C83.2408 83.984 82.4668 84.416 81.6388 84.398C80.6488 84.38 79.2088 83.858 78.5788 83.156L77.4988 84.722C78.7948 86.072 80.1988 86.306 81.6028 86.306C84.1408 86.306 85.4188 84.956 85.4188 83.39C85.4188 81.032 83.2948 80.654 81.6208 80.546C80.4868 80.474 79.9648 80.15 79.9648 79.574C79.9648 79.016 80.5408 78.692 81.5848 78.692C82.4308 78.692 83.1508 78.89 83.7808 79.484L85.0048 78.044ZM89.3826 77.09V86H87.1866V77.09H89.3826ZM86.9886 74.624C86.9886 76.334 89.5806 76.334 89.5806 74.624C89.5806 72.914 86.9886 72.914 86.9886 74.624ZM98.7502 78.044C97.7242 77.144 96.6802 76.874 95.2942 76.874C93.6742 76.874 91.5502 77.594 91.5502 79.646C91.5502 81.662 93.5482 82.274 95.2222 82.4C96.4822 82.472 96.9862 82.724 96.9862 83.336C96.9862 83.984 96.2122 84.416 95.3842 84.398C94.3942 84.38 92.9542 83.858 92.3242 83.156L91.2442 84.722C92.5402 86.072 93.9442 86.306 95.3482 86.306C97.8862 86.306 99.1642 84.956 99.1642 83.39C99.1642 81.032 97.0402 80.654 95.3662 80.546C94.2322 80.474 93.7102 80.15 93.7102 79.574C93.7102 79.016 94.2862 78.692 95.3302 78.692C96.1762 78.692 96.8962 78.89 97.5262 79.484L98.7502 78.044Z" fill="white"/>
<path d="M308.81 93.3192V98.5605V111.132V126.263V139.414V143.726C308.81 144.399 308.864 145.113 308.81 145.801V145.895C308.366 145.45 307.908 144.992 307.463 144.548H322.231H345.77H351.173C350.728 144.992 350.27 145.45 349.826 145.895V141.637V131.1V117.734V104.772V95.6366V93.575C349.826 92.7262 349.381 92.0794 348.465 92.0659C346.255 92.0255 344.045 92.0659 341.836 92.0659H329.103H316.41C314.321 92.0659 312.206 91.9716 310.104 92.0659C309.376 92.0794 308.837 92.551 308.81 93.319C308.743 95.0437 306.048 95.0572 306.115 93.319C306.196 90.9072 308.096 89.3441 310.427 89.3441H313.284H324.791H338.467H347.656C348.963 89.3441 350.189 89.4384 351.227 90.3951C352.264 91.3248 352.52 92.5914 352.52 93.9117V101.04V113.342V127.314V139.239V145.612V145.908C352.52 146.636 351.901 147.256 351.173 147.256H336.405H312.866H307.463C306.735 147.256 306.115 146.636 306.115 145.908V140.667V128.096V112.964V99.8136C306.115 97.6847 306.034 95.5559 306.115 93.4269V93.3326C306.115 91.5809 308.81 91.5809 308.81 93.3191L308.81 93.3192Z" fill="#545659"/>
<path d="M276.309 65.1692V73.2403V92.4814V115.873V135.962V142.619C276.309 143.656 276.39 144.721 276.309 145.758V145.893C275.865 145.448 275.406 144.99 274.962 144.546H285.903H303.432H307.448C307.003 144.99 306.545 145.448 306.1 145.893V138.428V121.626V103.921V93.7214C306.1 93.2498 306.114 92.7917 306.235 92.3201C306.72 90.4068 308.472 89.3423 310.358 89.3423H318.011H318.712L317.364 90.6897V77.4581V68.646V65.9106C317.364 65.3717 317.445 64.7653 317.068 64.3342C316.435 63.6066 314.71 63.903 313.848 63.903H306.936H288.058H280.634C279.623 63.903 278.599 63.8491 277.589 63.903C276.861 63.9299 276.322 64.442 276.309 65.1695C276.242 66.8942 273.547 66.9077 273.614 65.1695C273.695 62.9328 275.406 61.2486 277.629 61.1946C278.034 61.1812 278.438 61.1946 278.842 61.1946H285.148H304.443C308.31 61.1946 312.19 61.0868 316.058 61.1946C318.281 61.262 319.979 62.9463 320.046 65.1695C320.059 65.6277 320.046 66.0993 320.046 66.5574V74.3993V90.3662V90.6761C320.046 91.4037 319.426 92.0235 318.699 92.0235H311.867C311.18 92.0235 310.089 91.8349 309.455 92.1852C308.93 92.4682 308.795 92.9802 308.795 93.5326C308.782 96.6452 308.795 99.7442 308.795 102.857V119.982V136.933C308.795 139.857 308.889 142.808 308.795 145.732V145.866C308.795 146.594 308.175 147.214 307.448 147.214H296.507H278.977H274.962C274.234 147.214 273.614 146.594 273.614 145.866V137.795V118.554V95.1629V75.073C273.614 71.8124 273.506 68.5382 273.614 65.2773V65.1426C273.614 63.4313 276.309 63.4313 276.309 65.1695L276.309 65.1692Z" fill="#545659"/>
<path d="M243.85 37.0229V39.9468V47.8427V59.5787V73.8881V89.5047V105.337V120.037V132.514V141.488C243.85 142.889 243.918 144.317 243.85 145.719V145.908C243.406 145.463 242.947 145.005 242.503 144.56H253.444H270.96H274.975C274.531 145.005 274.073 145.463 273.628 145.908V143.132V135.694V124.942V112.195V98.7884V85.988V75.2626V67.8923C273.628 66.9087 273.561 65.8981 273.641 64.9145C273.817 63.0685 275.178 61.5324 277.05 61.2764C277.616 61.1956 278.209 61.2225 278.775 61.2225H284.852H286.226C285.782 61.6672 285.323 62.1253 284.879 62.5699V49.3384V40.5262V37.7908C284.879 37.2519 284.96 36.6456 284.582 36.2144C283.949 35.4868 282.224 35.7832 281.362 35.7832H274.463H255.586H248.162C247.151 35.7832 246.127 35.7293 245.117 35.7832C244.403 35.7832 243.877 36.2952 243.85 37.0228C243.783 38.7475 241.088 38.761 241.155 37.0228C241.236 34.7861 242.947 33.1019 245.171 33.0479C245.575 33.0344 245.979 33.0479 246.383 33.0479H252.689H271.971C275.838 33.0479 279.718 32.9401 283.572 33.0479C285.795 33.1153 287.493 34.7996 287.561 37.0228C287.574 37.4809 287.561 37.9525 287.561 38.4107V46.2526V62.2195V62.5294C287.561 63.257 286.941 63.8768 286.213 63.8768H281.699H278.708C278.277 63.8768 277.805 63.8229 277.388 63.8903C275.959 64.1059 276.31 66.1 276.31 67.1376V83.9937V109.472V133.524C276.31 137.579 276.404 141.635 276.31 145.691V145.866C276.31 146.593 275.69 147.213 274.962 147.213H264.021H246.505H242.49C241.762 147.213 241.142 146.594 241.142 145.866V142.942V135.046V123.31V109.001V93.3841V77.552V62.8518V50.3746V41.4008C241.142 39.986 241.115 38.5847 241.142 37.1699V36.9813C241.156 35.2835 243.85 35.2835 243.85 37.0217L243.85 37.0229Z" fill="#545659"/>
</g>
<defs>
<clipPath id="clip0_2_337">
<rect width="338" height="137" rx="16" fill="white"/>
</clipPath>
</defs>
</svg>
