<svg width="60" height="38" viewBox="0 0 60 38" fill="none" xmlns="http://www.w3.org/2000/svg">
<path d="M29.9921 25.644C28.2878 25.644 26.584 25.3978 24.9427 24.9662L10.8047 20.8378V30.2654C10.8047 31.9908 11.9405 33.4697 13.6448 33.9628L19.8301 35.7495C26.6466 37.7215 33.8418 37.7215 40.6583 35.7495L46.8436 33.9628C48.5479 33.4698 49.6837 31.9908 49.6837 30.2654L49.6842 20.7148L35.0412 24.9667C33.4 25.4592 31.6961 25.644 29.9918 25.644H29.9921Z" fill="#23DA8B"/>
<path d="M58.714 8.6301L33.7832 1.42068C31.3216 0.681387 28.6709 0.681387 26.1459 1.42068L1.27818 8.6301C-0.426061 9.12311 -0.426061 11.5262 1.27818 12.0193L26.209 19.2287C28.6705 19.968 31.3213 19.968 33.8463 19.2287L55.1795 13.0668V18.5509C54.7375 18.7972 54.4222 19.2287 54.4222 19.7217V21.2007C54.4222 21.7552 54.7379 22.2482 55.2429 22.433L53.9172 25.4524C53.7279 25.884 53.9802 26.3151 54.4852 26.3765L55.8737 26.4999H56.6944L58.0829 26.3765C58.5249 26.3151 58.7772 25.8835 58.6509 25.4524L57.3252 22.433C57.8302 22.1867 58.1458 21.7551 58.1458 21.2007V19.7217C58.1458 19.2287 57.8302 18.7976 57.3886 18.5509V12.4505L58.7771 12.0189C60.418 11.4649 60.418 9.12328 58.7137 8.63022L58.714 8.6301Z" fill="#23DA8B"/>
</svg>
