<svg width="338" height="137" viewBox="0 0 338 137" fill="none" xmlns="http://www.w3.org/2000/svg">
<g clip-path="url(#clip0_2_321)">
<rect width="338" height="137" rx="16" fill="#3B3B3B"/>
<path d="M36.368 60.778C35.54 61.606 34.298 62.056 33.2 62.056C30.086 62.056 28.88 59.878 28.862 57.79C28.844 55.684 30.158 53.416 33.2 53.416C34.298 53.416 35.414 53.794 36.242 54.604L37.826 53.074C36.53 51.796 34.91 51.148 33.2 51.148C28.646 51.148 26.504 54.496 26.522 57.79C26.54 61.066 28.52 64.288 33.2 64.288C35.018 64.288 36.692 63.694 37.988 62.416L36.368 60.778ZM43.5255 54.946C40.6995 54.946 38.9355 57.034 38.9355 59.572C38.9355 62.128 40.6635 64.198 43.5435 64.198C46.4235 64.198 48.1695 62.128 48.1695 59.572C48.1695 57.034 46.3515 54.946 43.5255 54.946ZM43.5435 56.944C45.0195 56.944 45.9555 58.24 45.9555 59.572C45.9555 60.922 45.1455 62.182 43.5435 62.182C41.9415 62.182 41.1315 60.922 41.1315 59.572C41.1315 58.24 41.9595 56.944 43.5435 56.944ZM58.7755 64V59.338C58.7755 56.548 57.1015 54.982 55.0135 54.982C53.8975 54.982 52.9975 55.432 52.0975 56.314L51.9535 55.108H49.9915V64H52.1695V59.464C52.1695 58.114 53.0875 56.98 54.4375 56.98C55.8415 56.98 56.5795 58.006 56.5795 59.356V64H58.7755ZM69.7527 64V59.338C69.7527 56.548 68.0787 54.982 65.9907 54.982C64.8747 54.982 63.9747 55.432 63.0747 56.314L62.9307 55.108H60.9687V64H63.1467V59.464C63.1467 58.114 64.0647 56.98 65.4147 56.98C66.8187 56.98 67.5567 58.006 67.5567 59.356V64H69.7527ZM80.8018 60.346C81.1438 56.692 79.2898 54.856 76.3198 54.856C73.4398 54.856 71.6038 56.8 71.6038 59.5C71.6038 62.344 73.4218 64.234 76.4818 64.234C77.8318 64.234 79.3618 63.766 80.2978 62.794L78.8938 61.408C78.3898 61.93 77.3278 62.236 76.5178 62.236C74.9698 62.236 74.0158 61.444 73.8718 60.346H80.8018ZM73.9078 58.528C74.2318 57.376 75.2038 56.8 76.3918 56.8C77.6518 56.8 78.5518 57.376 78.6958 58.528H73.9078ZM88.992 61.426C88.452 61.966 87.75 62.164 87.048 62.164C85.68 62.164 84.528 61.264 84.528 59.572C84.528 58.024 85.608 56.944 87.084 56.944C87.696 56.944 88.344 57.178 88.866 57.646L90.252 56.188C89.28 55.234 88.308 54.874 87.048 54.874C84.474 54.874 82.332 56.422 82.332 59.572C82.332 62.722 84.474 64.27 87.048 64.27C88.362 64.27 89.442 63.874 90.468 62.866L88.992 61.426ZM92.6921 52.858V55.144H91.0361V57.034H92.6921V60.868C92.6921 63.082 93.9521 64.18 95.8781 64.108C96.5441 64.09 97.0661 63.982 97.6961 63.73L97.0841 61.858C96.7601 62.02 96.3641 62.128 96.0221 62.128C95.3381 62.128 94.8701 61.714 94.8701 60.868V57.034H97.3361V55.144H94.8881V52.624L92.6921 52.858ZM109.568 55.108L107.642 61.786L105.608 55.108H103.16L106.274 64.036H108.83L109.748 61.408L110.54 58.438L111.332 61.408L112.25 64.036H114.806L117.902 55.108H115.472L113.438 61.786L111.494 55.108H109.568ZM122.314 55.09V64H120.118V55.09H122.314ZM119.92 52.624C119.92 54.334 122.512 54.334 122.512 52.624C122.512 50.914 119.92 50.914 119.92 52.624ZM125.562 52.858V55.144H123.906V57.034H125.562V60.868C125.562 63.082 126.822 64.18 128.748 64.108C129.414 64.09 129.936 63.982 130.566 63.73L129.954 61.858C129.63 62.02 129.234 62.128 128.892 62.128C128.208 62.128 127.74 61.714 127.74 60.868V57.034H130.206V55.144H127.758V52.624L125.562 52.858ZM132.211 51.4V64H134.407V59.464C134.407 58.132 135.307 57.034 136.603 57.034C137.773 57.034 138.619 57.718 138.619 59.338V64H140.815V59.32C140.815 56.71 139.699 55 137.179 55C136.171 55 135.199 55.306 134.407 56.332V51.4H132.211ZM26.882 73.4V86H35.738V83.804H29.258V73.4H26.882ZM39.8053 77.09V86H37.6093V77.09H39.8053ZM37.4113 74.624C37.4113 76.334 40.0033 76.334 40.0033 74.624C40.0033 72.914 37.4113 72.914 37.4113 74.624ZM42.0989 73.418V86H44.2949V81.986L47.7689 86H50.4149V85.838L46.2929 81.302L49.9109 77.252V77.126H47.2829L44.2949 80.69V73.418H42.0989ZM60.5786 82.346C60.9206 78.692 59.0666 76.856 56.0966 76.856C53.2166 76.856 51.3806 78.8 51.3806 81.5C51.3806 84.344 53.1986 86.234 56.2586 86.234C57.6086 86.234 59.1386 85.766 60.0746 84.794L58.6706 83.408C58.1666 83.93 57.1046 84.236 56.2946 84.236C54.7466 84.236 53.7926 83.444 53.6486 82.346H60.5786ZM53.6846 80.528C54.0086 79.376 54.9806 78.8 56.1686 78.8C57.4286 78.8 58.3286 79.376 58.4726 80.528H53.6846ZM74.7294 86V81.248C74.7294 80.078 75.4674 79.052 76.6554 79.052C77.8434 79.052 78.3294 80.042 78.3294 81.212V86H80.5254V81.212C80.5254 78.548 79.2834 77 76.7634 77C75.6114 77 74.5854 77.36 73.7934 78.62C73.2894 77.396 72.2274 76.964 71.1654 76.964C70.3194 76.964 69.2934 77.288 68.8254 78.188L68.6634 77.108H66.6294V86H68.8254V81.248C68.8254 80.078 69.5274 79.016 70.7154 79.016C71.9214 79.016 72.5334 80.078 72.5334 81.248V86H74.7294ZM85.3221 77.09V86H83.1261V77.09H85.3221ZM82.9281 74.624C82.9281 76.334 85.5201 76.334 85.5201 74.624C85.5201 72.914 82.9281 72.914 82.9281 74.624ZM96.3997 86V81.338C96.3997 78.548 94.7257 76.982 92.6377 76.982C91.5217 76.982 90.6217 77.432 89.7217 78.314L89.5777 77.108H87.6157V86H89.7937V81.464C89.7937 80.114 90.7117 78.98 92.0617 78.98C93.4657 78.98 94.2037 80.006 94.2037 81.356V86H96.3997ZM102.949 78.962C104.335 78.962 105.523 80.006 105.523 81.554C105.523 83.156 104.335 84.164 102.949 84.164C101.545 84.164 100.429 83.102 100.429 81.554C100.429 79.952 101.545 78.962 102.949 78.962ZM105.667 73.418V78.332C105.145 77.414 103.687 76.91 102.751 76.91C100.159 76.91 98.2329 78.494 98.2329 81.554C98.2329 84.47 100.195 86.198 102.805 86.198C103.885 86.198 104.983 85.838 105.667 84.776L105.811 86H107.863V73.418H105.667ZM119.129 82.346C119.471 78.692 117.617 76.856 114.647 76.856C111.767 76.856 109.931 78.8 109.931 81.5C109.931 84.344 111.749 86.234 114.809 86.234C116.159 86.234 117.689 85.766 118.625 84.794L117.221 83.408C116.717 83.93 115.655 84.236 114.845 84.236C113.297 84.236 112.343 83.444 112.199 82.346H119.129ZM112.235 80.528C112.559 79.376 113.531 78.8 114.719 78.8C115.979 78.8 116.879 79.376 117.023 80.528H112.235ZM125.483 78.962C126.869 78.962 128.057 80.006 128.057 81.554C128.057 83.156 126.869 84.164 125.483 84.164C124.079 84.164 122.963 83.102 122.963 81.554C122.963 79.952 124.079 78.962 125.483 78.962ZM128.201 73.418V78.332C127.679 77.414 126.221 76.91 125.285 76.91C122.693 76.91 120.767 78.494 120.767 81.554C120.767 84.47 122.729 86.198 125.339 86.198C126.419 86.198 127.517 85.838 128.201 84.776L128.345 86H130.397V73.418H128.201ZM139.205 75.65H142.769C145.793 75.65 145.811 80.114 142.769 80.114H139.205V75.65ZM142.769 73.382C140.789 73.382 138.809 73.4 136.829 73.4V86H139.205V82.292H142.769C148.943 82.292 148.925 73.382 142.769 73.382ZM157.606 82.346C157.948 78.692 156.094 76.856 153.124 76.856C150.244 76.856 148.408 78.8 148.408 81.5C148.408 84.344 150.226 86.234 153.286 86.234C154.636 86.234 156.166 85.766 157.102 84.794L155.698 83.408C155.194 83.93 154.132 84.236 153.322 84.236C151.774 84.236 150.82 83.444 150.676 82.346H157.606ZM150.712 80.528C151.036 79.376 152.008 78.8 153.196 78.8C154.456 78.8 155.356 79.376 155.5 80.528H150.712ZM163.834 76.946C161.008 76.946 159.244 79.034 159.244 81.572C159.244 84.128 160.972 86.198 163.852 86.198C166.732 86.198 168.478 84.128 168.478 81.572C168.478 79.034 166.66 76.946 163.834 76.946ZM163.852 78.944C165.328 78.944 166.264 80.24 166.264 81.572C166.264 82.922 165.454 84.182 163.852 84.182C162.25 84.182 161.44 82.922 161.44 81.572C161.44 80.24 162.268 78.944 163.852 78.944ZM175.268 84.092C173.774 84.092 172.748 82.958 172.748 81.572C172.748 80.186 173.684 79.052 175.268 79.052C176.852 79.052 177.788 80.186 177.788 81.572C177.788 82.958 176.762 84.092 175.268 84.092ZM172.55 89.708V84.956C173.18 85.928 174.566 86.216 175.502 86.216C178.346 86.216 179.984 84.164 179.984 81.572C179.984 78.962 178.166 76.928 175.43 76.928C174.422 76.928 173.234 77.36 172.55 78.35L172.406 77.126H170.354V89.708H172.55ZM181.964 73.418V86H184.142V73.418H181.964ZM195.222 82.346C195.564 78.692 193.71 76.856 190.74 76.856C187.86 76.856 186.024 78.8 186.024 81.5C186.024 84.344 187.842 86.234 190.902 86.234C192.252 86.234 193.782 85.766 194.718 84.794L193.314 83.408C192.81 83.93 191.748 84.236 190.938 84.236C189.39 84.236 188.436 83.444 188.292 82.346H195.222ZM188.328 80.528C188.652 79.376 189.624 78.8 190.812 78.8C192.072 78.8 192.972 79.376 193.116 80.528H188.328Z" fill="white"/>
<path d="M260.339 147V129.248L260.341 129.248V127.201C260.341 115.36 270.4 105.722 282.26 105.722C282.26 105.722 282.26 105.722 282.26 105.722L332.427 105.724C344.676 105.724 354.134 115.117 354.134 127.201C354.134 127.201 354.134 127.201 354.134 127.201L354.133 147H260.339Z" stroke="#545659" stroke-width="4"/>
<path d="M332.561 67.0401C332.561 80.7995 321.199 92.0803 307.256 92.0803C293.344 92.0803 282.154 80.8266 281.951 67.0259C281.959 53.273 293.317 42 307.256 42C321.198 42 332.561 53.2794 332.561 67.0401Z" stroke="#545659" stroke-width="4"/>
<path d="M262.905 76.8907C262.905 87.2691 254.346 95.9954 243.649 96.0615H243.526C232.733 96.0615 223.935 87.4792 223.935 76.8892C223.935 66.2738 232.759 57.5077 243.526 57.5077C254.255 57.5077 262.905 66.4442 262.905 76.8907Z" stroke="#545659" stroke-width="4"/>
<path d="M207 124.265C207 115.131 214.539 107.818 223.628 107.818C223.628 107.818 223.628 107.818 223.628 107.818L255.976 107.819C251.489 113.015 248.722 119.855 248.722 127.41V139.454H207V124.265Z" stroke="#545659" stroke-width="4"/>
</g>
<defs>
<clipPath id="clip0_2_321">
<rect width="338" height="137" rx="16" fill="white"/>
</clipPath>
</defs>
</svg>
