<svg width="235" height="212" viewBox="0 0 235 212" fill="none" xmlns="http://www.w3.org/2000/svg">
<path d="M33.5278 210.875L33.2937 211.109L33.0478 210.875H12.0313C8.94986 210.872 5.99566 209.646 3.81782 207.466C1.63998 205.286 0.41667 202.33 0.416672 199.249V11.7514C0.438099 8.67651 1.6683 5.7335 3.84151 3.55809C6.01472 1.38268 8.9565 0.149525 12.0313 0.125H222.969C229.385 0.125 234.583 5.33521 234.583 11.7514V199.249C234.562 202.324 233.332 205.267 231.159 207.442C228.985 209.617 226.044 210.85 222.969 210.875H33.5278ZM211.167 140.625V23.5417H23.8333V187.458L140.917 70.375L211.167 140.625ZM211.167 173.736L140.917 103.486L56.9445 187.458H211.167V173.736ZM70.6667 93.7917C64.4562 93.7917 58.5001 91.3246 54.1086 86.9331C49.7171 82.5416 47.25 76.5855 47.25 70.375C47.25 64.1645 49.7171 58.2084 54.1086 53.8169C58.5001 49.4254 64.4562 46.9583 70.6667 46.9583C76.8772 46.9583 82.8333 49.4254 87.2248 53.8169C91.6162 58.2084 94.0833 64.1645 94.0833 70.375C94.0833 76.5855 91.6162 82.5416 87.2248 86.9331C82.8333 91.3246 76.8772 93.7917 70.6667 93.7917Z" fill="#9A9FA5"/>
</svg>
