<svg width="30" height="11" viewBox="0 0 30 11" fill="none" xmlns="http://www.w3.org/2000/svg">
<path d="M29.2952 5.05448V9.52856C29.2952 10.2318 28.7254 10.7956 28.0221 10.7956C27.8403 10.7956 27.6705 10.7592 27.5189 10.6925L27.2704 10.547L22.7902 7.95838C22.7235 7.92201 22.6569 7.88563 22.5902 7.85532C22.4265 7.78257 22.2567 7.72195 22.0809 7.68557C21.7839 7.61889 21.4747 7.61283 21.1776 7.66133C20.9109 7.70376 20.6441 7.78864 20.3956 7.92201L17.3401 9.55887L16.4125 10.056L15.6366 10.4682C15.3577 10.5652 15.0606 10.6137 14.7514 10.6137C14.3392 10.6137 13.9512 10.5228 13.6056 10.3652L13.3389 10.2197C13.3389 10.2197 13.3328 10.2197 13.3328 10.2136L12.09 9.5528L9.03455 7.91595C8.72537 7.75226 8.39194 7.65526 8.05244 7.63101C7.816 7.61283 7.57957 7.63101 7.34313 7.67951C7.10063 7.73407 6.85814 7.82501 6.63383 7.95232C6.63383 7.95232 6.63382 7.95232 6.62776 7.95232L1.91118 10.6744L1.70506 10.7956C1.56562 10.8562 1.41406 10.8926 1.25644 10.8926C0.625944 10.8926 0.116699 10.3652 0.116699 9.71649V5.05448C0.116699 4.51492 0.401634 4.0178 0.868442 3.75105L6.24583 0.647078C6.36708 0.574329 6.50045 0.513704 6.62776 0.465205C6.85814 0.380331 7.09457 0.331829 7.33707 0.319705C7.5735 0.30758 7.80994 0.325767 8.04637 0.380329C8.19187 0.410641 8.33131 0.45914 8.47075 0.519764L13.7087 2.82349C14.3392 3.10237 15.0606 3.10237 15.6911 2.82349L20.9291 0.519764C21.0018 0.489452 21.0806 0.459142 21.1594 0.434892C21.4504 0.337893 21.7596 0.301517 22.0627 0.319705C22.2325 0.331829 22.4083 0.356081 22.572 0.40458C22.772 0.459142 22.966 0.544016 23.154 0.647078L28.5314 3.75105C29.0103 4.0178 29.2952 4.51492 29.2952 5.05448Z" fill="url(#paint0_linear_16_477)"/>
<defs>
<linearGradient id="paint0_linear_16_477" x1="2.55037" y1="14.2411" x2="26.7642" y2="0.261268" gradientUnits="userSpaceOnUse">
<stop stop-color="#7A26F2"/>
<stop offset="0.5056" stop-color="#D23BC1"/>
<stop offset="1" stop-color="#F39B39"/>
</linearGradient>
</defs>
</svg>
