<svg width="72" height="63" viewBox="0 0 72 63" fill="none" xmlns="http://www.w3.org/2000/svg">
<path d="M62.9608 22.6646L61.1271 8H9.88614L8.05249 22.6646C7.83549 24.4522 8.29677 26.2583 9.33575 27.6877C10.3743 29.1172 11.9061 30.0545 13.596 30.2937L14.6593 30.4424H14.6597C16.1668 30.6488 17.6943 30.2861 18.9732 29.4186C20.2522 28.5512 21.2007 27.2348 21.6514 25.7005C21.8961 27.2962 22.6686 28.7481 23.8317 29.7977C24.9946 30.8467 26.4723 31.4258 28.0016 31.4312H29.0772C31.3295 31.4235 33.4146 30.1743 34.578 28.1363C34.7733 27.7996 35.1207 27.5942 35.4946 27.5942C35.8685 27.5942 36.216 27.7996 36.4112 28.1363C37.5746 30.1744 39.6599 31.4236 41.9121 31.4312H42.9877C44.5228 31.4348 46.0095 30.8602 47.1802 29.8098C48.3509 28.7598 49.1288 27.303 49.3744 25.7005C49.825 27.2322 50.7715 28.5472 52.0479 29.4141C53.3243 30.2811 54.8489 30.6452 56.3542 30.4424L57.4175 30.2937C59.1078 30.0545 60.6393 29.1172 61.6782 27.6877C62.7167 26.2583 63.178 24.4522 62.961 22.6646L62.9608 22.6646Z" fill="#FB596C"/>
<path d="M56.6537 33.2909C56.2764 33.3428 55.897 33.3689 55.5167 33.3685C55.2784 33.3685 55.046 33.3685 54.8077 33.336V48.5073C54.8128 48.766 54.719 49.0157 54.5477 49.2005C54.3763 49.3853 54.1418 49.4894 53.8971 49.4894H17.1163C16.6133 49.4894 16.2057 49.0581 16.2057 48.5267V33.3358C15.9734 33.3358 15.735 33.3682 15.4967 33.3682V33.3678C15.1164 33.3682 14.737 33.3421 14.3597 33.2903C13.3834 33.1555 12.4315 32.8657 11.5362 32.4312V48.5071C11.5379 50.071 12.1262 51.5705 13.1724 52.6765C14.2186 53.7821 15.637 54.4046 17.1163 54.4059H53.8971C55.3765 54.4045 56.7948 53.7821 57.841 52.6765C58.8872 51.5705 59.4756 50.071 59.4772 48.5071V32.4312C58.582 32.8657 57.6304 33.1555 56.6537 33.2903L56.6537 33.2909Z" fill="#FB596C"/>
</svg>
